<svg width="29" height="33" viewBox="0 0 29 33" fill="none" xmlns="http://www.w3.org/2000/svg">
    <path d="M0.162324 26.3536L9.41478 13.2033L0 0H9.68532L14.5009 7.21144L19.2083 0H28.4067L19.1001 12.8852C25.1241 21.2985 28.3345 25.788 28.7313 26.3536H19.1001L14.1222 18.93C13.5811 19.7431 12.7154 21.051 11.525 22.8539C10.3346 24.6568 9.55904 25.8233 9.19835 26.3536H0.162324Z" fill="white" />
    <path d="M0.162324 32.3282L9.41478 19.1779L0 5.97461H9.68532L14.5009 13.1861L19.2083 5.97461H28.4067L19.1001 18.8598C25.1241 27.2731 28.3345 31.7626 28.7313 32.3282H19.1001L14.1222 24.9046C13.5811 25.7177 12.7154 27.0257 11.525 28.8285C10.3346 30.6314 9.55904 31.7979 9.19835 32.3282H0.162324Z" fill="url(#paint0_linear_61_35)" />
    <defs>
        <linearGradient id="paint0_linear_61_35" x1="-0.595187" y1="-13.2288" x2="31.709" y2="-12.0952" gradientUnits="userSpaceOnUse">
            <stop stop-color="#33FFB6" />
            <stop offset="1" stop-color="#E0E330" />
        </linearGradient>
    </defs>
</svg>